<svg xmlns="http://www.w3.org/2000/svg" width="224" height="176" viewBox="0 0 224 176">
    <defs>
        <linearGradient id="a" x1="50%" x2="77.828%" y1="15.646%" y2="93.79%">
            <stop offset="0%" stop-color="#4CB6FF"/>
            <stop offset="100%" stop-color="#A164FF"/>
        </linearGradient>
        <radialGradient id="b" cy="0%" r="95.813%" fx="50%" fy="0%" gradientTransform="scale(.67726 1) rotate(79.34 .62 .144)">
            <stop offset="0%" stop-color="#FFF"/>
            <stop offset="100%" stop-color="#FFF" stop-opacity=".551"/>
        </radialGradient>
        <radialGradient id="c" cy="0%" r="96.381%" fx="50%" fy="0%" gradientTransform="scale(.58335 1) rotate(77.673 .679 .222)">
            <stop offset="0%" stop-color="#FFF"/>
            <stop offset="100%" stop-color="#FFF" stop-opacity=".551"/>
        </radialGradient>
        <radialGradient id="d" cy="0%" r="97.098%" fx="50%" fy="0%" gradientTransform="scale(.50626 1) rotate(75.867 .744 .313)">
            <stop offset="0%" stop-color="#FFF"/>
            <stop offset="100%" stop-color="#FFF" stop-opacity=".551"/>
        </radialGradient>
        <linearGradient id="e" x1="50%" x2="50.002%" y1="4.849%" y2="402.807%">
            <stop offset="0%" stop-color="#B9E1FF"/>
            <stop offset="100%" stop-color="#9149FF"/>
        </linearGradient>
        <linearGradient id="f" x1="50%" x2="50%" y1="400.361%" y2="-182.767%">
            <stop offset="0%" stop-color="#B9E1FF"/>
            <stop offset="100%" stop-color="#9149FF"/>
        </linearGradient>
        <linearGradient id="g" x1="50%" x2="47.585%" y1="56.039%" y2="48.61%">
            <stop offset="0%" stop-color="#B9E1FF"/>
            <stop offset="100%" stop-color="#9149FF"/>
        </linearGradient>
        <linearGradient id="h" x1="50%" x2="51.652%" y1="49.81%" y2="51.488%">
            <stop offset="0%" stop-color="#B9E1FF"/>
            <stop offset="100%" stop-color="#9149FF"/>
        </linearGradient>
        <linearGradient id="i" x1="50%" x2="50.004%" y1="4.849%" y2="402.807%">
            <stop offset="0%" stop-color="#B9E1FF"/>
            <stop offset="100%" stop-color="#9149FF"/>
        </linearGradient>
        <linearGradient id="j" x1="50%" x2="50.004%" y1="4.849%" y2="402.807%">
            <stop offset="0%" stop-color="#B9E1FF"/>
            <stop offset="100%" stop-color="#9149FF"/>
        </linearGradient>
        <linearGradient id="k" x1="29.926%" x2="54.821%" y1="-120.091%" y2="86.324%">
            <stop offset="0%" stop-color="#39AEFF"/>
            <stop offset="16.853%" stop-color="#3CABFF"/>
            <stop offset="84.423%" stop-color="#5818B9"/>
            <stop offset="100%" stop-color="#2F2E41"/>
        </linearGradient>
        <linearGradient id="l" x1="29.544%" x2="88.041%" y1="38.517%" y2="-23.379%">
            <stop offset="0%" stop-color="#FFCAAE"/>
            <stop offset="100%" stop-color="#E18E6A"/>
        </linearGradient>
        <linearGradient id="m" x1="41.757%" x2="-34.026%" y1="47.359%" y2="73.469%">
            <stop offset="0%" stop-color="#FFCAAE"/>
            <stop offset="100%" stop-color="#FAA986"/>
        </linearGradient>
        <linearGradient id="n" x1="61.736%" x2="47.907%" y1="7.861%" y2="144.576%">
            <stop offset="0%" stop-color="#39AEFF"/>
            <stop offset="16.853%" stop-color="#3CABFF"/>
            <stop offset="17.863%" stop-color="#39AEFF"/>
            <stop offset="100%" stop-color="#5818B9"/>
        </linearGradient>
        <linearGradient id="o" x1="99.226%" x2="-92.711%" y1="52.144%" y2="87.289%">
            <stop offset="0%" stop-color="#39AEFF"/>
            <stop offset="16.853%" stop-color="#3CABFF"/>
            <stop offset="100%" stop-color="#5818B9"/>
        </linearGradient>
        <linearGradient id="p" x1="36.873%" x2="71.058%" y1="68.692%" y2="-47.241%">
            <stop offset="0%" stop-color="#FFCAAE"/>
            <stop offset="100%" stop-color="#E18E6A"/>
        </linearGradient>
        <linearGradient id="q" x1="195.66%" x2="23.701%" y1="33.143%" y2="50%">
            <stop offset="0%" stop-color="#39AEFF"/>
            <stop offset="16.853%" stop-color="#3CABFF"/>
            <stop offset="100%" stop-color="#5818B9"/>
        </linearGradient>
        <linearGradient id="r" x1="50%" x2="38.112%" y1="40.989%" y2="9.498%">
            <stop offset="0%" stop-color="#FFCAAE"/>
            <stop offset="100%" stop-color="#FAA986"/>
        </linearGradient>
        <linearGradient id="s" x1="76.016%" x2="45.303%" y1="-164.078%" y2="50%">
            <stop offset="0%" stop-color="#39AEFF"/>
            <stop offset="16.853%" stop-color="#3CABFF"/>
            <stop offset="100%" stop-color="#5818B9"/>
        </linearGradient>
        <linearGradient id="t" x1="342.514%" x2="25.706%" y1="-38.401%" y2="40.074%">
            <stop offset="0%" stop-color="#FFCAAE"/>
            <stop offset="100%" stop-color="#E7926E"/>
        </linearGradient>
        <linearGradient id="u" x1="-2.707%" x2="71.156%" y1="-32.042%" y2="100%">
            <stop offset="0%" stop-color="#39AEFF"/>
            <stop offset="16.853%" stop-color="#3CABFF"/>
            <stop offset="100%" stop-color="#5818B9"/>
        </linearGradient>
        <linearGradient id="v" x1="-11.162%" x2="284.807%" y1="12.579%" y2="23.34%">
            <stop offset="0%" stop-color="#39AEFF"/>
            <stop offset="16.853%" stop-color="#3CABFF"/>
            <stop offset="100%" stop-color="#5818B9"/>
        </linearGradient>
        <linearGradient id="w" x1="41.757%" x2="-60.832%" y1="41.337%" y2="152.071%">
            <stop offset="0%" stop-color="#FFCAAE"/>
            <stop offset="100%" stop-color="#FAA986"/>
        </linearGradient>
        <linearGradient id="x" x1="195.66%" x2="23.701%" y1="-78.209%" y2="50%">
            <stop offset="0%" stop-color="#39AEFF"/>
            <stop offset="16.853%" stop-color="#3CABFF"/>
            <stop offset="100%" stop-color="#5818B9"/>
        </linearGradient>
        <linearGradient id="y" x1="195.66%" x2="23.701%" y1="-107.529%" y2="50%">
            <stop offset="0%" stop-color="#39AEFF"/>
            <stop offset="16.853%" stop-color="#3CABFF"/>
            <stop offset="100%" stop-color="#5818B9"/>
        </linearGradient>
        <linearGradient id="z" x1="34.703%" x2="108.727%" y1="12.579%" y2="23.34%">
            <stop offset="0%" stop-color="#39AEFF"/>
            <stop offset="16.853%" stop-color="#3CABFF"/>
            <stop offset="100%" stop-color="#5818B9"/>
        </linearGradient>
        <linearGradient id="A" x1="-10.63%" x2="110.293%" y1="50%" y2="135.64%">
            <stop offset="0%" stop-color="#39AEFF"/>
            <stop offset="16.853%" stop-color="#3CABFF"/>
            <stop offset="100%" stop-color="#5818B9"/>
        </linearGradient>
        <linearGradient id="B" x1="45.073%" x2="-.223%" y1="40.843%" y2="131.385%">
            <stop offset="0%" stop-color="#FFCAAE"/>
            <stop offset="100%" stop-color="#FAA986"/>
        </linearGradient>
        <linearGradient id="C" x1="42.895%" x2="112.361%" y1="87.267%" y2="-113.157%">
            <stop offset="0%" stop-color="#FFCA75"/>
            <stop offset="47.226%" stop-color="#F72"/>
            <stop offset="100%" stop-color="#FF43B8"/>
        </linearGradient>
        <linearGradient id="D" x1="48.268%" x2="65.206%" y1="87.267%" y2="-113.157%">
            <stop offset="0%" stop-color="#FFCA75"/>
            <stop offset="47.226%" stop-color="#F72"/>
            <stop offset="100%" stop-color="#FF43B8"/>
        </linearGradient>
        <linearGradient id="E" x1="29.456%" x2="231.319%" y1="42.352%" y2="264.157%">
            <stop offset="0%" stop-color="#FFCA75"/>
            <stop offset="47.226%" stop-color="#F72"/>
            <stop offset="100%" stop-color="#FF43B8"/>
        </linearGradient>
        <radialGradient id="F" cx="26.127%" cy="25.219%" r="111.457%" fx="26.127%" fy="25.219%" gradientTransform="matrix(.5381 .82884 -.84288 .52915 .333 -.098)">
            <stop offset="0%" stop-color="#FFF"/>
            <stop offset="100%" stop-color="#FFF" stop-opacity=".223"/>
        </radialGradient>
        <linearGradient id="G" x1="50%" x2="50.003%" y1="4.849%" y2="402.807%">
            <stop offset="0%" stop-color="#B9E1FF"/>
            <stop offset="100%" stop-color="#9149FF"/>
        </linearGradient>
        <linearGradient id="H" x1="50%" x2="47.585%" y1="56.031%" y2="48.612%">
            <stop offset="0%" stop-color="#B9E1FF"/>
            <stop offset="100%" stop-color="#9149FF"/>
        </linearGradient>
        <linearGradient id="I" x1="50%" x2="51.652%" y1="49.77%" y2="51.8%">
            <stop offset="0%" stop-color="#B9E1FF"/>
            <stop offset="100%" stop-color="#9149FF"/>
        </linearGradient>
        <linearGradient id="J" x1="33.803%" x2="50%" y1="35.978%" y2="100%">
            <stop offset="0%" stop-color="#FFCAAE"/>
            <stop offset="100%" stop-color="#FAA986"/>
        </linearGradient>
        <linearGradient id="K" x1="36.165%" x2="86.438%" y1="-44.35%" y2="154.988%">
            <stop offset="0%" stop-color="#FFCAAE"/>
            <stop offset="100%" stop-color="#E18E6A"/>
        </linearGradient>
        <linearGradient id="L" x1="50%" x2="34.123%" y1="54.843%" y2="91.303%">
            <stop offset="0%" stop-color="#39AEFF"/>
            <stop offset="16.853%" stop-color="#3CABFF"/>
            <stop offset="100%" stop-color="#5818B9"/>
        </linearGradient>
        <linearGradient id="M" x1="50%" x2="34.123%" y1="54.561%" y2="88.894%">
            <stop offset="0%" stop-color="#39AEFF"/>
            <stop offset="16.853%" stop-color="#3CABFF"/>
            <stop offset="100%" stop-color="#5818B9"/>
        </linearGradient>
        <linearGradient id="N" x1="19.452%" x2="62.563%" y1="-30.162%" y2="100%">
            <stop offset="0%" stop-color="#39AEFF"/>
            <stop offset="16.853%" stop-color="#3CABFF"/>
            <stop offset="100%" stop-color="#5818B9"/>
        </linearGradient>
        <linearGradient id="O" x1="113.308%" x2="58.943%" y1="41.386%" y2="17.227%">
            <stop offset="0%" stop-color="#39AEFF"/>
            <stop offset="16.853%" stop-color="#3CABFF"/>
            <stop offset="100%" stop-color="#5818B9"/>
        </linearGradient>
        <linearGradient id="P" x1="-14.936%" x2="94.699%" y1="-100.455%" y2="192.078%">
            <stop offset="0%" stop-color="#39AEFF"/>
            <stop offset="16.853%" stop-color="#3CABFF"/>
            <stop offset="100%" stop-color="#5818B9"/>
        </linearGradient>
        <linearGradient id="Q" x1="41.727%" x2="51.987%" y1="-141.98%" y2="90.998%">
            <stop offset="0%" stop-color="#39AEFF"/>
            <stop offset="16.853%" stop-color="#3CABFF"/>
            <stop offset="84.423%" stop-color="#5818B9"/>
            <stop offset="100%" stop-color="#2F2E41"/>
        </linearGradient>
        <linearGradient id="R" x1="0%" x2="50%" y1="48.723%" y2="54.554%">
            <stop offset="0%" stop-color="#FFCAAE"/>
            <stop offset="100%" stop-color="#FAA986"/>
        </linearGradient>
        <linearGradient id="S" x1="50%" x2="62.448%" y1="68.374%" y2="171.968%">
            <stop offset="0%" stop-color="#39AEFF"/>
            <stop offset="16.853%" stop-color="#3CABFF"/>
            <stop offset="100%" stop-color="#5818B9"/>
        </linearGradient>
        <linearGradient id="T" x1="50%" x2="87.982%" y1="68.374%" y2="171.968%">
            <stop offset="0%" stop-color="#39AEFF"/>
            <stop offset="16.853%" stop-color="#3CABFF"/>
            <stop offset="100%" stop-color="#5818B9"/>
        </linearGradient>
        <linearGradient id="U" x1="0%" x2="50%" y1="42.736%" y2="75.905%">
            <stop offset="0%" stop-color="#FFCAAE"/>
            <stop offset="100%" stop-color="#FAA986"/>
        </linearGradient>
        <linearGradient id="V" x1="0%" x2="50%" y1="36.984%" y2="96.416%">
            <stop offset="0%" stop-color="#FFCAAE"/>
            <stop offset="100%" stop-color="#FAA986"/>
        </linearGradient>
        <linearGradient id="W" x1="50%" y1="67.399%" y2="165.499%">
            <stop offset="0%" stop-color="#39AEFF"/>
            <stop offset="16.853%" stop-color="#3CABFF"/>
            <stop offset="100%" stop-color="#5818B9"/>
        </linearGradient>
        <linearGradient id="X" x1="50%" x2="91.458%" y1="68.374%" y2="171.968%">
            <stop offset="0%" stop-color="#39AEFF"/>
            <stop offset="16.853%" stop-color="#3CABFF"/>
            <stop offset="100%" stop-color="#5818B9"/>
        </linearGradient>
        <linearGradient id="Y" x1="26.89%" x2="50%" y1="35.978%" y2="100%">
            <stop offset="0%" stop-color="#FFCAAE"/>
            <stop offset="100%" stop-color="#FAA986"/>
        </linearGradient>
        <linearGradient id="Z" x1="50%" x2="51.652%" y1="49.951%" y2="50.379%">
            <stop offset="0%" stop-color="#B9E1FF"/>
            <stop offset="100%" stop-color="#9149FF"/>
        </linearGradient>
        <linearGradient id="aa" x1="-5.387%" x2="142.639%" y1="49.941%" y2="51.097%">
            <stop offset="0%" stop-color="#39AEFF"/>
            <stop offset="16.853%" stop-color="#3CABFF"/>
            <stop offset="100%" stop-color="#5818B9"/>
        </linearGradient>
        <linearGradient id="ab" x1="50%" x2="50.012%" y1="4.849%" y2="402.807%">
            <stop offset="0%" stop-color="#B9E1FF"/>
            <stop offset="100%" stop-color="#9149FF"/>
        </linearGradient>
        <linearGradient id="ac" x1="38.354%" x2="65.423%" y1="-35.618%" y2="181.25%">
            <stop offset="0%" stop-color="#FFF4E7"/>
            <stop offset="47.226%" stop-color="#FFC49F"/>
            <stop offset="100%" stop-color="#FF6CC7"/>
        </linearGradient>
        <linearGradient id="ad" x1="-24.839%" x2="149.115%" y1="-22.346%" y2="160.904%">
            <stop offset="0%" stop-color="#FFC275"/>
            <stop offset="47.226%" stop-color="#F72"/>
            <stop offset="100%" stop-color="#FF43B8"/>
        </linearGradient>
        <linearGradient id="ae" x1="32.928%" x2="72.61%" y1="-35.618%" y2="181.25%">
            <stop offset="0%" stop-color="#FFF4E7"/>
            <stop offset="47.226%" stop-color="#FFC49F"/>
            <stop offset="100%" stop-color="#FF6CC7"/>
        </linearGradient>
        <linearGradient id="af" x1="27.099%" x2="80.33%" y1="-35.618%" y2="181.25%">
            <stop offset="0%" stop-color="#FFF4E7"/>
            <stop offset="47.226%" stop-color="#FFC49F"/>
            <stop offset="100%" stop-color="#FF6CC7"/>
        </linearGradient>
        <linearGradient id="ag" x1="-23.442%" x2="147.264%" y1="-35.618%" y2="181.25%">
            <stop offset="0%" stop-color="#FFC275"/>
            <stop offset="47.226%" stop-color="#F72"/>
            <stop offset="100%" stop-color="#FF43B8"/>
        </linearGradient>
        <radialGradient id="ah" cy="0%" r="95.806%" fx="50%" fy="0%" gradientTransform="scale(1 .99062) rotate(82.803 .5 0)">
            <stop offset="0%" stop-color="#FFF"/>
            <stop offset="100%" stop-color="#FFF" stop-opacity=".551"/>
        </radialGradient>
        <linearGradient id="ai" x1="47.754%" x2="69.819%" y1="42.29%" y2="265.893%">
            <stop offset="0%" stop-color="#FFCA75"/>
            <stop offset="47.226%" stop-color="#F72"/>
            <stop offset="100%" stop-color="#FF43B8"/>
        </linearGradient>
        <linearGradient id="aj" x1="44.864%" x2="95.33%" y1="42.29%" y2="265.893%">
            <stop offset="0%" stop-color="#FFCA75"/>
            <stop offset="47.226%" stop-color="#F72"/>
            <stop offset="100%" stop-color="#FF43B8"/>
        </linearGradient>
    </defs>
    <g fill="none" fill-rule="evenodd">
        <path fill="url(#a)" fill-rule="nonzero" d="M154.468 163.41c21.209-29.117 32.159-56.562 32.851-82.335 1.038-38.66-38.199-92.396-118.4-78.972-80.202 13.424-81.297 97.443-49.31 113.484 21.325 10.693 66.278 26.635 134.859 47.824z"/>
        <path fill="url(#b)" d="M24.055 117.802a174.177 174.177 0 0 1-4.446-2.143C-12.378 99.643-11.283 15.751 68.92 2.347c80.201-13.404 119.438 40.25 118.4 78.852-.225 8.35-1.53 16.877-3.914 25.58-13.9 4.024-43.16 18.695-76.624 19.872-32.738 1.152-51.243.89-82.726-8.85z" opacity=".462"/>
        <path fill="url(#c)" d="M.375 82.467C-2.938 51.708 15.335 11.106 68.918 2.11 115-5.627 147.557 8.875 166.722 29.969c-6.775 23.831-26.334 42.877-58.678 57.137-44.702 19.71-90.263 6.576-107.669-4.64z" opacity=".329"/>
        <path fill="url(#d)" d="M3.542 53.6c7.608-23.193 27.977-45.153 65.9-51.486 20.07-3.351 37.593-2.538 52.582 1.172-15.82 29.874-31.954 47.538-48.4 52.991-17.228 5.713-40.589 4.82-70.082-2.677z" opacity=".462"/>
        <path fill="#EFEFFF" fill-rule="nonzero" d="M223.917 162.052c0 2.739-5.883 5.296-16.048 7.45C189.45 173.407 156.976 176 119.99 176c-57.395 0-103.925-6.244-103.925-13.948 0-1.064.893-2.107 2.585-3.104 1.908-1.13 4.836-2.205 8.645-3.21 7.851-2.073 19.452-3.844 33.601-5.16 16.425-1.526 36.288-2.433 57.714-2.468a769.947 769.947 0 0 1 12.614.079c12.62.18 24.562.666 35.416 1.397.485.032.967.068 1.448.1.164.011.328.025.492.035.044.003.089.006.133.011a485.856 485.856 0 0 1 8.246.656c6.382.56 12.273 1.213 17.572 1.947.905.125 1.793.252 2.663.382 6.704.995 12.35 2.124 16.699 3.351 6.428 1.812 10.024 3.841 10.024 5.984z"/>
        <g fill-rule="nonzero">
            <path fill="url(#e)" d="M3.974.004l1.958.002.071 55.082-1.958-.003z" transform="scale(1 -1) rotate(8 887.332 202.961)"/>
            <path fill="url(#f)" d="M4.602 2.894h15.429a4.227 4.227 0 0 1 4.177 3.58l1.139 7.357a4.227 4.227 0 0 1-4.177 4.874H5.74a4.227 4.227 0 0 1-4.176-3.58L.424 7.766a4.227 4.227 0 0 1 4.178-4.873z" transform="translate(33 66)"/>
            <path fill="url(#g)" d="M14.43 45.88h25.544a8.153 8.153 0 0 1 8.153 8.152H6.278a8.153 8.153 0 0 1 8.153-8.152z" transform="translate(33 66)"/>
            <path fill="url(#h)" d="M6.278 53.785h41.848v2.718H6.278z" transform="matrix(1 0 0 -1 33 176.288)"/>
            <path fill="url(#i)" d="M4.885 55.03l1.958.003.054 41.99-1.958-.002z" transform="rotate(8 -449.531 344.988)"/>
            <path fill="url(#i)" d="M16.876 55.03l1.959.003.054 41.99-1.958-.002z" transform="rotate(8 -437.54 344.988)"/>
            <path fill="url(#i)" d="M48.69 55.03l1.96.003.053 41.99-1.958-.002z" transform="scale(-1 1) rotate(8 -488.422 -837.637)"/>
        </g>
        <path fill="url(#j)" fill-rule="nonzero" d="M70.087 120.714h1.973l.005 41.963h-1.973z" transform="scale(-1 1) rotate(8 0 -874.737)"/>
        <g fill-rule="nonzero">
            <path fill="url(#k)" d="M52.631 10.974c5.296 4.769-3.987 12.923-4.216 16.707-.228 3.783-5.178 6.73-6.85 5.917-1.672-.813-20 3.78-24.76 9.778-3.175 3.999-5.716 6.854-7.624 8.566-2.856-4.103-3.703-7.837-2.54-11.203 1.745-5.05 6.136-5.72 6.881-9.897.745-4.177-1.038-10.31 4.5-13.37 5.537-3.06 7.662-1.894 12.324-4.146 4.662-2.251 4.686-4.346 8.941-5.86 4.255-1.512 8.05-1.261 13.344 3.508z" transform="rotate(-19 129.86 -52.32)"/>
            <path fill="url(#l)" d="M23.206 29.907c5.887-2.148 9.085-3.62 9.594-4.414.508-.794 1.03-2.88 1.568-6.256l5.668 2.58c-.493 3.058-.351 4.875.425 5.45 1.165.862 4.058 3.546 4.497 4.363.292.544-.113 4.832-1.218 12.863l-17.394.821-3.14-15.407z" transform="translate(32 28)"/>
            <path fill="#ED967F" d="M69.074 48.468l2.962 1.348c-.304 1.887-.367 3.301-.188 4.243a25.38 25.38 0 0 1-1.43-.56c-1.134-.483-2.274-2.16-3.421-5.03h2.077z"/>
            <path fill="url(#m)" d="M49.819 54.628c12.38-4.539 18.916-7.028 19.608-7.47 1.039-.66 1.27-2.179 2.27-3.02 1-.842 3.87-1.468 3.87-.447 0 1.02-1.83 1.122-1.83 1.623 0 .501 1.461.82 2.387.4.925-.42 3.192-2.786 3.585-1.576.394 1.21-1.803 4.563-3.125 5.064-1.322.501-4.76.47-5.27.822-.509.35-18.98 12.775-23.516 12.775-4.537 0-5.389-1.085-4.01-3.62.429-.788 2.439-2.305 6.03-4.55z" transform="translate(32 28)"/>
            <path fill="url(#n)" d="M45.05 30.934c1.922 2.669 4.56 22.713 4.769 22.713.139 0 .516.144 1.13.434-.753 1.436-1.518 2.35-2.293 2.74-1.163.584-3.667 2.043-4.055 3.576-.258 1.021-.258 1.822 0 2.402-.937-.48-1.565-.95-1.885-1.407-.319-.458-1.07-2.36-2.255-5.706 1.777-18.28 3.307-26.53 4.589-24.752z" transform="translate(32 28)"/>
            <path fill="url(#o)" d="M49.819 53.647c.139 0 .516.144 1.13.434-.753 1.436-1.518 2.35-2.293 2.74-1.163.584-3.667 2.043-4.055 3.576-.258 1.021-.258 1.822 0 2.402-.937-.48-1.565-.95-1.885-1.407-.165-.238-.448-.866-.848-1.883 1.938-2.184 3.477-3.42 4.62-3.71 1.338-.339 2.448-1.056 3.33-2.152z" transform="translate(32 28)"/>
            <path fill="url(#p)" d="M56.035 70.377c4.158.44 6.729.076 8.178 4.01 1.45 3.932 0 11.15 0 15.99 0 4.838 1.861 35.998 1.861 37.085 0 1.087 12.98 5.158 9.749 6.543-3.232 1.385-6.513 0-9.749 0-3.235 0-5.251.954-5.251-1.518v-5.025c-.021-3.857-.54-7.865-1.557-12.025-1.525-6.24-5.825-17.135-5.825-23.103V84.56c-7.237-6.075-10.655-10.208-10.255-12.4.602-3.289 8.692-2.224 12.85-1.784z" transform="translate(32 28)"/>
            <path fill="url(#q)" d="M71.522 130.327c3.095 1.415 6.036 2.934 4.3 3.678-3.23 1.385-6.512 0-9.748 0-3.235 0-5.251.954-5.251-1.518v-1.536c5.547.687 8.705.914 9.475.68.78-.236 1.11-.69.99-1.364l.234.06z" transform="translate(32 28)"/>
            <path fill="url(#r)" d="M45.6 72.16c4.098-.01 7.98.18 11.648.571 5.502.588 8.428 9.032 1.153 14.017-4.85 3.324-15.004 14.717-30.464 34.179-.492 3.305-.738 5.65-.738 7.036 0 2.078.03 6.072-1.121 6.072s-3.06-6.961-4.127-10.035c-1.066-3.073-3.516-6.6-2.04-7.315 1.475-.715 5.313-2.144 5.92-2.95.136-.18 2.373-1.944 4.597-5.474 3.625-5.754 7.973-16.708 9.132-18.701 1.44-2.48 2.813-4.152 4.117-5.02l-4.95 2.208c-1.77-6.933-1.478-11.003.877-12.209 2.355-1.205 4.354-1.998 5.996-2.378z" transform="translate(32 28)"/>
            <path fill="url(#s)" d="M27.233 126.94c-.022.384-.034.726-.034 1.023 0 2.078.03 6.072-1.121 6.072s-3.06-6.961-4.127-10.035c-1.066-3.073-3.516-6.6-2.04-7.315.567-.275 1.485-.656 2.433-1.066 1.241 6.345 2.288 9.886 3.14 10.622.717.619 1.3.852 1.75.698z" transform="translate(32 28)"/>
            <path fill="url(#t)" d="M38.728 86.748a49.12 49.12 0 0 1-.606-2.658l8.919-1.757-3.364 2.208-4.95 2.207z" transform="translate(32 28)"/>
            <path fill="#2F2E41" d="M43.962 96.18c-2.991 9.906-1.489 16.303 4.507 19.192 5.996 2.888 14.443 2.542 25.342-1.038.208-3.283.667-6.088 1.375-8.415.709-2.327 3.297-5.043 7.764-8.146l-13.209-.985-25.78-.608z"/>
            <path fill="url(#u)" d="M30.192 27.002l7.664 10.528 3.591-9.525c3.208 1.543 4.756 3.792 4.646 6.746-.167 4.432.337 8.588 0 11.25-.338 2.663-2.975 5.843-3.48 7.164-.504 1.32-3.232 4.351-3.232 9.634 0 3.522.433 5.517 1.3 5.986-3.638 2.488-7.8 3.733-12.484 3.733-7.026 0-16.86-2.446-16.86-4.213s7-11.312 7.645-15.788c.43-2.984 1.464-10.574 3.1-22.77l8.11-2.745z" transform="translate(32 28)"/>
            <path fill="url(#v)" d="M30.14 27.073l1.897-.944 5.096 5.608 3.328-4.47.986.738-3.573 9.668z" transform="translate(32 28)"/>
            <g transform="rotate(-26 121.64 -113.778)">
                <path fill="url(#w)" d="M1.175 6.435c.33 4.477 1.836 7.121 4.518 7.931 2.682.81 5.516-1.857 8.504-8.002 1.162-2.375.556-4.384-1.818-6.029-1.565-1.084-5.31 2.678-7.712 4.208-.828.528-1.595.49-2.3-.115.028-1.28-.37-1.92-1.192-1.92-1.235 0-1.363 2.5-.992 3.31.248.541.579.747.992.617z"/>
                <path fill="#ED967F" d="M1.675 4.156c-.105-.934-.334-1.232-.688-.894-.354.337-.49.798-.408 1.382.172-.647.35-1.012.533-1.094.183-.081.37.12.563.606z"/>
                <ellipse cx="7.62" cy="5.907" fill="#2F2E41" rx="1" ry="1" transform="rotate(26 7.62 5.907)"/>
                <ellipse cx="12.045" cy="7.877" fill="#2F2E41" rx="1" ry="1" transform="rotate(26 12.045 7.877)"/>
                <path fill="#FFF" d="M5.476 9.643c.809.6 1.4.976 1.771 1.13.373.155 1.028.387 1.967.696-.923 1.143-1.858 1.484-2.803 1.022-.946-.462-1.258-1.41-.935-2.848z"/>
                <path fill="#ED967F" d="M10.014 7.097c-.147.39-.174.889-.081 1.496.14.911.3 1.648-.271 1.648-.38 0-.703.013-.967.041.663-.143.995-.332.995-.567L9.69 8.241c0-.405.108-.786.325-1.144z"/>
                <path fill="url(#x)" d="M7.638 2.914c.233.435.576.106 1.105.317.53.211.592.821.893.933.301.112.447-.892-.263-1.455-.71-.563-1.968-.23-1.735.205z" transform="rotate(-6 8.747 3.293)"/>
                <path fill="url(#y)" d="M12.366 5.17c.232.433.551.012 1.081.223.53.21.385.948.758 1.104.373.157.484-1.02-.1-1.57-.585-.551-1.972-.192-1.74.242z" transform="scale(-1 1) rotate(-70 0 24.755)"/>
            </g>
            <path fill="url(#z)" d="M22.468 29.502c-2.27.766-3.86 2.81-4.772 6.133-1.367 4.984 7.125 24.517 9.249 25.662 2.123 1.146 8.462 1.422 5.855-6.41-1.612-4.841-3.932-12.392-5.521-18.095-1.06-3.802-2.664-6.232-4.81-7.29z" transform="translate(32 28)"/>
            <path fill="url(#A)" d="M30.353 47.212a404.933 404.933 0 0 0 2.025 6.397l-1.646 8.17c-1.37.305-2.926-.017-3.787-.482-.397-.213-1.015-1.068-1.75-2.35-.227-1.828.217-3.934 1-5.54.972-1.998 3.192-3.327 3.192-4.312 0-.657-.518-.764-1.555-.32 1.172-.894 2.013-1.415 2.52-1.563z" transform="translate(32 28)"/>
            <path fill="url(#B)" d="M26.945 61.297c-4.378-3.664 11.808-21.53 12.55-22.896.131-.243.61-1.818 1.13-3.277.48-1.351 1.792-2.848 2.561-2.848.789 0-.01 1.535 0 2.293.003.197.359.258 1.88 0 1.52-.258 6.201-1.647 4.242 1.128-.638.903-1.97 2.542-3.663 2.704-1.231.117-2.769.025-3.15 1.12-2.545 7.287-4.178 11.754-6.158 16.76-1.98 5.008-5.014 8.681-9.392 5.016z" transform="translate(32 28)"/>
        </g>
        <g transform="rotate(14 -157.576 428.6)">
            <path fill="url(#C)" d="M3.986.246c-1.908 2.9-2.862 4.68-2.862 5.337s.013 2.81.039 6.461c-1.212.712-1.338 1.067-.379 1.067 1.44 0 1.515-.015 1.515-.774 0-.76-.039-5.307-.039-6.754 0-.965.913-2.597 2.738-4.897L3.986.246z" transform="rotate(-13 91.712 -12.156)"/>
            <path fill="url(#D)" d="M8.964.62c-.67 2.642-1.006 4.286-1.006 4.93 0 .646.221 2.778.664 6.395-1.233.698-1.361 1.048-.385 1.048 1.465 0 1.542-.016 1.542-.76 0-.746-.664-5.262-.664-6.682 0-.947.259-2.59.778-4.93h-.93z" transform="rotate(-13 91.712 -12.156)"/>
            <rect width="21.882" height="21.793" fill="url(#E)" rx="10.897"/>
            <path fill="url(#F)" d="M11.268.004a8.136 8.136 0 0 1-5.546 14.09h-.066a8.109 8.109 0 0 1-5.615-2.25A11.04 11.04 0 0 1 0 10.897C0 4.879 4.879 0 10.897 0h.088c.095 0 .189.001.283.004z" opacity=".322"/>
        </g>
        <g fill="#3F3D56" fill-rule="nonzero" transform="rotate(14 -194.756 440.993)">
            <ellipse cx="1.091" cy="1.135" rx="1.091" ry="1.135"/>
            <ellipse cx="12.585" cy="1.135" rx="1.091" ry="1.135"/>
        </g>
        <path fill="#FFF" d="M104.392 65.999l4.202 1.047c-.303 1.217-1.49 1.969-2.65 1.68-1.16-.29-1.855-1.51-1.552-2.727z"/>
        <g fill-rule="nonzero">
            <path fill="url(#G)" d="M6.87 6.48l1.973.004.1 45.424-1.974.574z" transform="rotate(15 -339.659 647.067)"/>
            <path fill="url(#G)" d="M36.466 6.48l1.974.004.099 45.424-1.973.574z" transform="scale(-1 1) rotate(15 -495.564 -761.963)"/>
            <path fill="url(#G)" d="M48.058 6.48l1.974.004.099 45.424-1.973.574z" transform="scale(-1 1) rotate(15 -495.564 -850.012)"/>
            <path fill="url(#H)" d="M12.663 0h25.754a8.21 8.21 0 0 1 8.21 8.21H4.454A8.21 8.21 0 0 1 12.663 0z" transform="translate(148 111)"/>
        </g>
        <path fill="url(#I)" fill-rule="nonzero" d="M153 119h42v3h-42z" transform="matrix(1 0 0 -1 0 241)"/>
        <g fill-rule="nonzero" transform="translate(136 32)">
            <path fill="url(#J)" d="M25.56 25.453l.372-5.31c-1.875.692-3.109.279-3.702-1.242-.89-2.282 1.073-9.854 1.752-13.239.68-3.385 9.15-5.896 12.351-.981 2.135 3.276 2.656 7.23 1.563 11.858v5.712l-8.826 8.576-3.51-5.374z"/>
            <path fill="url(#K)" d="M25.648 24.194l.27-3.847c4.913-2.071 8.031-4.177 9.354-6.317.929-1.502 1.9-1.147 2.916 1.066-.08.473-.177.954-.292 1.443v5.712l-8.826 8.576-2.833-4.337-.589-2.296z"/>
            <path fill="#ED967F" d="M25.907 20.507l6.45-1.431c-.336 2.077-1.55 3.22-3.64 3.426-1.462.145-1.612.95-.836 2.847.223.543.624 2.14 1.205 4.789l-.914-.686-1.935-2.962-.589-2.296.259-3.687z"/>
            <path fill="url(#L)" d="M45.083 124.044c-1.38 4.45-1.438 6.674-.176 6.674h14.864c3.416 0 1.051-2.958-7.093-8.873l-7.595 2.2z"/>
            <path fill="url(#M)" d="M17.332 121.88c.64 5.917.64 8.875 0 8.875H2.484c-5.02 0-2.431-2.57 7.766-7.71l7.082-1.164z"/>
            <path fill="#2F2E41" d="M50.986 67.152c8.195 1.587 13.089 3.855 14.682 6.802 1.593 2.947-2.196 19.228-11.366 48.844-.873.901-2.287 1.38-4.244 1.439a55.9 55.9 0 0 1-5.47-.087l6.398-40.423C38.305 82.171 31.51 81.393 30.6 81.393c-.91 0-4.621 1.178-11.134 3.535l-1.778 37.87c-1.414.959-2.96 1.439-4.636 1.439-1.676 0-3.416-.25-5.22-.748C2.906 94.598.443 78.68.443 75.739s3.052-5.258 9.157-6.948l41.386-1.64z"/>
            <path fill="url(#N)" d="M25.9 21.475c.155 1.99.455 3.434.9 4.332.667 1.346 1.073.867 1.394 1.435.213.379.51 1.344.892 2.896.049-.71.25-1.609.607-2.698.356-1.089 3.104-3.877 8.245-8.364.214.988 1.15 1.788 2.808 2.4 1.659.61 5.455 2.311 11.389 5.1 1.052 26.45.723 40.147-.988 41.094-1.207.669-3.83.577-7.433 1.288-4.052.8-9.39 2.368-16.247 2.368-12.955 0-15.572-2.22-15.572-2.995 0-.516.607-14.147 1.82-40.89L25.9 21.474z"/>
            <path fill="url(#O)" d="M29.638 27.61l.055-.17c.356-1.089 3.104-3.877 8.245-8.364.214.988 1.15 1.788 2.808 2.4.134.049.282.105.443.168L36.368 32.3c-.494-1.224-1.553-2.392-3.176-3.502-1.597-1.092-2.782-1.488-3.554-1.189z"/>
            <path fill="url(#P)" d="M26.634 25.43c.053.135.108.26.166.377.667 1.346 1.073.867 1.394 1.435.092.163.2.436.323.817l.03.186c-.218-.365-.614-.365-1.19 0-.575.366-1.366 1.105-2.372 2.219l-.717-2.68 2.366-2.354z"/>
            <path fill="url(#Q)" d="M52.54 38.558c.502 18.616.037 28.32-1.393 29.112-1.207.669-3.83.577-7.433 1.288-2.155.426-4.674 1.069-7.591 1.577-5.06-5.282-6.024-9.55-2.89-12.803 5.886-6.112 10.801-1.745 14.265-7.518 2.31-3.85 3.231-8.136 2.767-12.86l2.276 1.204z"/>
            <path fill="url(#R)" d="M25.628 55.647l3.368-.001c1.542 0 3.316-1.015 4.673-1.016 1.356 0 6.124 2.52 5.329 2.984-.53.31-4.987.669-13.371 1.078v-3.045z" transform="rotate(5 32.357 56.661)"/>
            <path fill="url(#S)" d="M28.122 27.095c-1.026-1.45-1.6-2.531-1.724-3.243-.124-.712-.219-1.725-.283-3.04l-2.404 1.512c-.112 2.644-.112 4.48 0 5.51.11 1.031.236 1.694.374 1.988 1.052-1.534 1.912-2.394 2.582-2.58.67-.185 1.155-.234 1.455-.147z"/>
            <path fill="url(#T)" d="M29.805 27.01c1.439-2.07 2.917-3.729 4.435-4.98 1.519-1.25 2.751-2.235 3.698-2.954l2.801 2.118c-2.15 3.674-3.467 5.985-3.947 6.932-.48.947-.987 2.112-1.52 3.495-.704-1.597-1.66-2.763-2.868-3.495-1.208-.733-2.074-1.105-2.599-1.117z"/>
            <ellipse cx="23.836" cy="9.744" fill="#2F2E41" rx="1" ry="1" transform="rotate(8 23.836 9.744)"/>
            <ellipse cx="29.31" cy="9.779" fill="#2F2E41" rx="1" ry="1" transform="rotate(8 29.31 9.779)"/>
            <path fill="#2F2E41" d="M23.404 7.706c.374.197.243-.524.96-.524.716 0 .812.573 1.194.573.382 0 .398-1.032-.856-1.285-1.255-.254-1.673 1.039-1.298 1.236zM28.535 7.53c.275.29.567-.427 1.27-.291.703.136.747.732 1.129.732s.476-.86-.707-1.348c-1.183-.487-1.967.616-1.692.907z"/>
            <path fill="#2F2E41" d="M23.821 6.726c-1.548.384-1.714-5.305 2.792-6.315 3.004-.674 6.744-.519 11.22.465-.125-.422-.275-.688-.452-.8.665.422 1.039.78 1.12 1.07.267-.533.591-.753.973-.66-.359.452-.515.74-.468.865.07.187 1.92.577 2.473 5.162.552 4.584-2.417 10.192-3.647 10.192-.82 0-1.647-.828-2.482-2.484-.381 3.205-2.23 5.366-5.545 6.485-4.974 1.678-8.095.356-8.254-1.515-.16-1.87-.254-6 3.15-5.851 3.405.147 3.77 3.051 5.81 3.365 1.36.21 2.633-1.868 3.818-6.235-1.087-.657-1.58-1.583-1.48-2.775.1-1.192.33-2.21.687-3.054-.798 1.05-1.596 1.494-2.395 1.333-.8-.161-1.104-.606-.914-1.333-1.486.671-2.39.865-2.71.58-.482-.426.441-1.552-.231-1.552-.673 0-1.916 2.674-3.465 3.057z"/>
            <path fill="url(#U)" d="M24.429 14.03c2.429 0 3.43 1.15 2.9 2.917-.53 1.767-2.07.615-2.07.144 0-.47-1.702-.404-1.702 0 0 .405-.324.916-1.089.405-.764-.512-.468-3.466 1.96-3.466z"/>
            <path fill="#FFF" d="M22.841 14.987H26.8c-.256.927-1.007 1.39-2.254 1.39-1.246 0-1.814-.463-1.705-1.39z"/>
            <path fill="#ED967F" d="M25.094 11.324c-.554.829-.76 1.305-.62 1.428.141.124.402.283.783.479-.784-.079-1.212-.238-1.282-.479-.07-.24.303-.716 1.12-1.428z"/>
            <path fill="url(#V)" d="M76.812 35.97c1.062-.503 1.593-.943 1.593-1.32 0-.567.102-2.084.564-2.745.462-.66 1.273-1.356 2.418-2.226 1.146-.869 1.988.701.865 1.471 1.998-1.7 3.128-2.358 3.389-1.976.26.383.178.88-.248 1.492.749-.385 1.228-.385 1.438 0 .21.386-.07.8-.842 1.24.862-.266 1.403-.197 1.623.208.22.406-.437 1.028-1.97 1.869.608-.176 1.005-.073 1.19.31.277.573-2.978 3.016-4.578 3.173-1.067.105-2.35.787-3.848 2.048l-1.594-3.544z" transform="rotate(-3 82.233 34.292)"/>
            <path fill="url(#W)" d="M52.135 26.577c3.47 1.69 5.562 3.107 6.278 4.25 1.075 1.714 8.043 12.345 9.076 12.345.689 0 4.01-2.56 9.965-7.678l3.79 4.568C74.5 51.128 69.915 56.661 67.488 56.661c-2.427 0-7.345-2.332-14.753-6.996-1.605-6.255-2.408-10.815-2.408-13.678 0-2.864.602-6 1.807-9.41z"/>
            <path fill="url(#X)" d="M13.715 27.44c-2.33 1.191-3.83 2.748-4.5 4.669C8.21 34.99-5.39 58.905 2.534 58.905h25.903l.28-4.851c-4.45-1.29-7.372-2.101-8.769-2.434-4.603-1.099-7.102-1.127-7.102-1.856 0-1.062.29-8.503.87-22.324z"/>
            <path fill="url(#Y)" d="M34.953 12.918c-.418-.953.396-3.1 1.283-2.64.888.46.863 1.313.496 2.042-.367.73-1.361 1.552-1.78.598z" transform="rotate(18 35.906 11.782)"/>
        </g>
        <path fill="url(#Z)" fill-rule="nonzero" d="M35 91h183v6H35z"/>
        <path fill="url(#aa)" fill-rule="nonzero" d="M39 97h175v6H39z"/>
        <path fill="url(#ab)" fill-rule="nonzero" d="M47 104h5v59h-5zM202 104h5v59h-5z"/>
        <g>
            <g transform="translate(180 70)">
                <path fill="url(#ac)" d="M10.201 20.05c-1.193.74-1.79 1.923-1.79 3.551v5.266c-1.372 1.632-1.716 2.448-1.03 2.448.687 0 1.438-.447 2.253-1.341V23.6c0-1.327.616-2.442 1.848-3.343l-1.281-.208z"/>
                <path fill="url(#ad)" d="M9.7 28.451c.458 1.628.424 2.526-.101 2.695-.789.253-3.69 1.284-3.125 0 .376-.856.966-1.616 1.77-2.279l1.455-.416z"/>
                <path fill="url(#ac)" d="M22.242 19.881c-1.194.74-1.79 1.923-1.79 3.551v5.266c-1.373 1.632-1.716 2.448-1.03 2.448.686 0 1.437-.447 2.253-1.341v-6.373c0-1.327.616-2.442 1.848-3.343l-1.281-.208z" transform="matrix(-1 0 0 1 42.602 0)"/>
                <path fill="url(#ae)" d="M23.523 11.807c2.194-.534 3.55-1.622 4.07-3.265.52-1.643.761-3.412.725-5.305-.147-.824-.203-1.397-.17-1.718.137-1.304.55-1.691.794-1.181.63 1.322.585 1.823.658 2.287.073.464-.312.61-.343.941-.196 2.083-.142 3.875-.698 5.584-.644 1.98-2.323 3.218-5.036 3.714v-1.057z"/>
                <path fill="url(#af)" d="M.11 11.807c2.195-.083 3.551-.947 4.07-2.59.52-1.643.762-3.411.726-5.305C4.41 2.21 4.65 1.36 5.622 1.36s1.112.85.421 2.552c.047 1.961-.252 3.932-.896 5.913-.644 1.98-2.323 2.994-5.036 3.039v-1.057z" transform="matrix(-1 0 0 1 6.584 0)"/>
                <path fill="url(#ad)" d="M23.747 28.451c.458 1.628.424 2.526-.101 2.695-.789.253-3.69 1.284-3.125 0 .377-.856.967-1.616 1.77-2.279l1.456-.416z" transform="matrix(-1 0 0 1 44.516 0)"/>
                <rect width="18.061" height="18.232" x="6.02" y="2.195" fill="url(#ag)" rx="3.506"/>
                <path fill="url(#ah)" d="M24.081 7.539a3.504 3.504 0 0 0-3.004-1.698h-7.972a3.506 3.506 0 0 0-3.506 3.506v8.114c0 1.248.653 2.344 1.635 2.965H9.526A3.506 3.506 0 0 1 6.02 16.92V5.7a3.506 3.506 0 0 1 3.506-3.505h11.05A3.506 3.506 0 0 1 24.08 5.7v1.838z" opacity=".322"/>
            </g>
            <g stroke="#3F3D56" stroke-width="1.315">
                <path d="M189.92 80.43c0-.601.452-1.088 1.01-1.088.557 0 1.01.487 1.01 1.087M199.211 80.293c0-.6.452-1.087 1.01-1.087s1.01.487 1.01 1.087"/>
            </g>
            <path fill="#FFF" d="M190.698 82.79h9.53c-.036 2.615-2.155 4.723-4.765 4.723s-4.73-2.108-4.765-4.722z"/>
        </g>
        <path fill="#D6E5FF" d="M129.201 69h22.902c1.13 0 2.136.72 2.5 1.79l5.696 16.716A2.642 2.642 0 0 1 157.8 91h-22.902c-1.13 0-2.136-.72-2.5-1.79L126.7 72.494A2.642 2.642 0 0 1 129.2 69z"/>
        <ellipse cx="143.483" cy="79.731" fill="#FFF" rx="2.22" ry="2.468" transform="rotate(-21 143.483 79.73)"/>
        <path fill="#D6E5FF" d="M157 88h20a1 1 0 1 1 0 2h-20v-2z"/>
        <path fill="url(#ai)" d="M93.907 66.513c-2.084-2.654-2.848-5.07-2.294-7.249.554-2.178 1.38-3.663 2.48-4.456 1.198-.526 1.636-1.104 1.316-1.735-.321-.63-.964-.454-1.93.529-2.208 2.424-3.157 4.905-2.847 7.44.31 2.537 1.327 4.733 3.049 6.59l.226-1.119z" transform="rotate(-22 93.043 60.168)"/>
        <path fill="url(#aj)" d="M117.376 66.598c2.354-.417 3.96-1.556 4.819-3.42.858-1.862 1.155-4.044.888-6.545-1.184-.668-1.48-1.415-.888-2.242s1.194-.342 1.805 1.454c0 4.89-.77 8.087-2.307 9.592-1.538 1.506-3.103 2.36-4.693 2.563l.376-1.402z"/>
    </g>
</svg>
